<svg version="1.1" id="Layer_1" xmlns="http://www.w3.org/2000/svg" xmlns:xlink="http://www.w3.org/1999/xlink" x="0px" y="0px"
	 width="100%" viewBox="0 0 1024 1024" enable-background="new 0 0 1024 1024" xml:space="preserve">
<path fill="none" opacity="1.000000" stroke="#000000" stroke-linecap="round" stroke-linejoin="round" stroke-width="4.000000"
	d="
M459.000000,687.500000 
	C455.900055,685.251831 456.038879,681.506836 455.655853,678.480286 
	C453.956360,665.050964 451.738281,651.621765 452.513977,638.000793 
	C454.110962,609.958374 464.616455,586.208130 486.500519,568.000610 
	C497.062988,559.212646 509.148834,552.818481 522.541199,550.769043 
	C539.651855,548.150452 556.968628,548.600464 574.024475,552.903076 
	C580.300537,554.486267 586.010803,557.303223 592.006653,559.481750 
	C594.968567,560.557922 597.857544,560.058655 601.024597,559.793274 
	C614.996399,558.622742 628.576172,560.537903 637.909607,572.570129 
	C646.861694,584.110840 646.804749,594.823914 635.464355,605.963745 
	C627.305420,613.978394 616.810608,618.128296 606.501160,622.502747 
	C583.060547,632.448914 558.467224,639.073364 534.506958,647.519714 
	C511.541504,655.615295 490.679291,667.535706 471.464203,682.453918 
	C467.902039,685.219543 465.151337,689.837219 459.384125,688.467102 
	C459.829773,690.322693 459.346527,691.803528 458.471161,692.978516 
	C441.049927,716.362488 424.461517,740.381348 403.053833,760.557129 
	C372.628235,789.231873 337.624725,809.887817 297.445923,821.309753 
	C286.605072,824.391479 275.338013,826.220947 264.029266,827.720642 
	C248.510040,829.778748 232.985779,829.999207 217.509750,829.287903 
	C203.248215,828.632263 189.069336,826.658569 174.940155,823.795349 
	C160.048859,820.777588 145.413010,816.913147 131.072632,812.275452 
	C111.948814,806.090637 93.259476,798.524841 74.991730,790.017761 
	C50.664459,778.688721 27.275785,765.667969 4.406396,751.652710 
	C2.839258,750.692322 2.693215,749.616760 2.000000,748.500000 
"/>
<path fill="none" opacity="1.000000" stroke="#000000" stroke-linecap="round" stroke-linejoin="round" stroke-width="4.000000"
	d="
M658.500000,380.500000 
	C664.444885,385.416321 667.786499,392.282410 672.007446,398.494934 
	C683.747070,415.773865 694.043701,433.914856 703.422852,452.538879 
	C714.484619,474.503845 722.883606,497.615967 728.269897,521.551758 
	C732.614624,540.858948 735.826416,560.504150 735.528381,580.500427 
	C735.223511,600.958679 729.671631,619.548340 716.470398,635.475464 
	C713.363281,639.224243 709.365601,642.057007 705.512512,645.016296 
	C701.382629,648.188110 696.871094,650.766418 693.354919,654.875854 
	C690.912720,657.730042 686.729126,658.379089 683.037476,659.612244 
	C655.129517,668.934692 633.524597,686.407043 617.470764,710.980896 
	C610.625244,721.459351 606.515381,732.972473 603.412964,744.977539 
	C602.864075,747.101501 603.374329,748.491821 604.500000,750.000000 
"/>
<path fill="none" opacity="1.000000" stroke="#000000" stroke-linecap="round" stroke-linejoin="round" stroke-width="4.000000"
	d="
M582.000000,255.500000 
	C579.693115,256.227570 577.924255,255.161545 575.974304,254.044861 
	C562.862000,246.535675 549.656250,239.199860 535.000488,234.998383 
	C524.283813,231.926178 513.464050,230.848892 502.506348,233.525970 
	C498.350708,234.541245 494.613831,236.481735 491.498932,239.498886 
	C480.443909,250.206818 474.406128,263.807251 469.545929,278.015717 
	C466.714508,286.293152 464.115387,294.643250 463.455353,303.496674 
	C462.434570,317.188751 468.961670,326.439514 479.972168,333.543152 
	C492.815094,341.829010 507.296722,345.049957 522.017944,346.853302 
	C540.817322,349.156250 559.313049,347.929382 576.525574,338.546875 
	C587.006470,332.833710 596.274719,325.885681 602.466309,315.479950 
	C605.356079,310.623352 604.505859,308.983521 599.000549,309.047577 
	C575.889954,309.316437 557.017456,318.522095 542.527039,336.521790 
	C538.111267,342.006989 537.367676,349.004608 536.705811,355.520905 
	C535.608948,366.319946 535.745483,377.468079 540.644714,387.428833 
	C546.593201,399.522888 556.566467,407.244080 570.002747,409.986420 
	C576.820251,411.377899 583.613892,411.083435 590.515137,410.106750 
	C597.184448,409.162872 603.390686,411.213196 609.010376,414.984528 
	C612.119202,417.070801 615.181396,419.312378 618.528931,420.940491 
	C627.946960,425.521027 636.047363,423.004272 643.027100,414.021057 
	C650.652039,404.207458 655.318787,392.830566 657.117371,380.942108 
	C658.458557,372.076965 659.632874,362.605591 656.958923,353.512085 
	C656.284302,351.217773 656.451843,349.297516 658.000000,347.500000 
"/>
<path fill="none" opacity="1.000000" stroke="#000000" stroke-linecap="round" stroke-linejoin="round" stroke-width="4.000000"
	d="
M854.000000,459.000000 
	C854.676514,461.994080 855.753662,464.525726 858.430542,466.590057 
	C863.305115,470.349152 863.830933,475.120544 861.547424,481.018372 
	C853.858826,500.876801 854.136963,520.124390 867.031982,537.976929 
	C876.456055,551.024109 889.451111,557.673096 905.499512,558.509644 
	C923.295410,559.437317 939.618408,555.191772 953.975342,544.466980 
	C964.692444,536.461243 971.498535,525.617920 973.329224,512.476196 
	C975.214905,498.940186 972.640381,486.308380 963.104004,475.408997 
	C953.642700,464.595581 942.976501,455.872009 928.978149,452.080597 
	C919.887390,449.618408 910.649292,449.746918 901.479614,452.430420 
	C898.919495,453.179626 896.985352,454.394653 895.383057,456.124908 
	C896.448975,460.701874 900.153625,462.752228 903.099060,464.861694 
	C913.128357,472.044373 923.142944,479.573578 935.038025,483.381165 
	C946.027466,486.898865 957.367432,489.032990 969.000000,486.250000 
"/>
<path fill="none" opacity="1.000000" stroke="#000000" stroke-linecap="round" stroke-linejoin="round" stroke-width="4.000000"
	d="
M668.500000,190.500000 
	C661.834473,193.834488 657.791443,199.864700 653.555786,205.541611 
	C642.238892,220.709320 634.504211,237.428070 632.377197,256.486298 
	C632.249634,257.628967 631.700012,259.134064 632.110046,259.944305 
	C633.180420,262.059509 630.991516,265.624359 634.520447,266.408051 
	C637.273376,267.019440 638.096436,264.123688 639.484619,262.486969 
	C649.513306,250.662994 659.056458,238.489761 663.960693,223.487152 
	C667.454407,212.799469 669.572754,202.135681 669.519775,190.497635 
	C669.463684,178.198212 667.768677,166.749344 663.444397,155.521408 
	C660.741455,148.502975 657.326538,143.823608 646.499268,143.923584 
	C628.843750,144.086639 612.319458,149.046188 596.012634,155.034409 
	C583.734375,159.543228 572.956543,166.200348 564.949890,176.962738 
	C557.096619,187.519012 555.294250,199.444458 558.740967,211.430695 
	C563.122681,226.667923 569.268738,241.100967 581.170410,252.834305 
	C585.701538,257.301270 591.075867,260.217041 595.500000,264.500000 
"/>
<path fill="none" opacity="1.000000" stroke="#000000" stroke-linecap="round" stroke-linejoin="round" stroke-width="4.000000"
	d="
M702.000000,274.000000 
	C689.757935,281.733337 676.486023,286.436066 661.998108,287.473206 
	C659.674622,287.639557 656.813843,288.068573 656.091370,284.978638 
	C655.535950,282.603088 657.675842,281.687469 659.444336,280.422180 
	C666.978455,275.031830 675.845947,273.931152 684.521912,272.648254 
	C690.582825,271.752045 696.916016,269.648651 703.014221,272.973969 
	C703.236084,273.094971 703.664001,272.820099 704.000366,272.751892 
	C717.244751,270.067749 728.960876,275.015900 739.898926,281.179413 
	C751.513733,287.724335 760.056519,297.407349 764.604980,310.463409 
	C768.549011,321.784241 766.991638,332.631866 763.473755,343.491486 
	C756.624634,364.634308 738.685120,376.396149 723.490601,377.905426 
	C707.078674,379.535706 692.409302,374.372528 678.976379,365.033997 
	C665.882385,355.931091 655.707520,344.177765 646.994690,331.003479 
	C646.535828,330.309631 646.108887,329.533722 645.482910,329.020813 
	C639.942200,324.480927 637.200439,318.612183 637.000000,311.500000 
"/>
<path fill="none" opacity="1.000000" stroke="#000000" stroke-linecap="round" stroke-linejoin="round" stroke-width="4.000000"
	d="
M807.500000,680.000000 
	C802.598938,688.891052 794.206299,693.384338 785.502197,697.504700 
	C771.398071,704.181213 756.035828,704.430725 740.989319,705.890015 
	C724.035645,707.534363 706.979065,708.090393 690.004578,709.553345 
	C659.850769,712.152283 632.547791,721.683960 611.126526,744.120789 
	C608.251709,747.131897 603.734314,749.278381 603.366943,754.490601 
	C603.291931,755.555359 603.780640,756.500000 603.500000,757.500000 
"/>
<path fill="none" opacity="1.000000" stroke="#000000" stroke-linecap="round" stroke-linejoin="round" stroke-width="4.000000"
	d="
M645.500000,587.500000 
	C651.232910,588.260742 655.310913,592.384399 659.888977,595.181702 
	C670.406189,601.608032 680.359802,608.962036 690.482971,616.024414 
	C693.316833,618.001404 696.362854,619.883545 697.757141,623.673645 
	C696.228760,628.839111 691.560547,629.378723 687.486511,629.892944 
	C678.195984,631.065430 668.826660,631.598877 659.501282,632.512878 
	C632.764771,635.133240 608.614075,643.702942 589.520203,663.519470 
	C579.614563,673.800049 574.769653,686.128052 574.415344,700.497925 
	C574.019958,716.530518 578.169678,731.010376 587.522522,743.983765 
	C590.658325,748.333435 594.612000,751.921570 599.015991,754.976929 
	C600.020630,755.673950 601.179382,756.411133 602.500000,755.500000 
"/>
<path fill="none" opacity="1.000000" stroke="#000000" stroke-linecap="round" stroke-linejoin="round" stroke-width="4.000000"
	d="
M960.000000,651.000000 
	C960.957275,649.412415 960.952637,647.481262 960.410583,646.033508 
	C957.948059,639.457031 955.285095,632.948242 952.472900,626.511780 
	C947.960327,616.183228 940.064270,608.458862 931.950195,601.054565 
	C923.847534,593.660706 915.059631,587.119995 904.999939,582.500183 
	C885.956055,573.754456 866.153137,567.923889 845.014282,569.672485 
	C833.802673,570.599915 823.158447,573.970154 816.428711,584.454224 
	C814.689514,587.163635 815.053406,590.362000 813.140259,592.557251 
	C815.042725,594.931580 817.183716,593.970459 818.999146,593.943665 
	C839.482483,593.640747 859.758911,595.414612 879.476929,601.080322 
	C899.413147,606.808655 917.419617,616.564514 934.010681,628.985779 
	C941.698853,634.741699 948.315186,641.702209 955.613037,647.866211 
	C959.655701,651.280823 962.815918,655.091919 965.527649,659.482910 
	C966.222107,660.607544 966.771851,661.660400 966.289307,663.339355 
	C965.371460,663.523743 964.056213,664.220520 963.020325,663.927979 
	C954.062866,661.398193 945.584961,664.227295 936.998962,665.994995 
	C913.499939,670.833008 890.428406,677.739868 866.501343,680.511353 
	C857.344116,681.571960 848.135071,681.283386 839.008240,680.833313 
	C830.009888,680.389404 820.941650,681.282471 811.979187,679.611572 
	C810.704224,679.373840 809.494080,677.880737 808.000000,679.000000 
"/>
<path fill="none" opacity="1.000000" stroke="#000000" stroke-linecap="round" stroke-linejoin="round" stroke-width="4.000000"
	d="
M954.000000,387.500000 
	C954.692993,391.080719 951.528564,393.041931 949.820984,394.828949 
	C942.320435,402.678284 935.415344,411.291504 925.513855,416.526245 
	C916.938416,421.059967 907.617432,423.488708 898.483459,426.448914 
	C897.344177,426.818115 895.551636,426.825836 895.111755,425.463898 
	C894.737488,424.305298 894.922913,422.576385 895.569458,421.543488 
	C898.735535,416.485931 903.000854,412.223846 907.587341,408.610901 
	C917.857788,400.520569 928.995972,393.725861 941.507812,389.523254 
	C944.455200,388.533234 947.473877,387.276978 950.506348,387.134552 
	C954.718994,386.936707 957.091797,385.978485 959.258667,381.628845 
	C962.966675,374.185486 965.421936,366.772583 964.978088,358.501190 
	C964.478210,349.185455 961.389587,340.747437 955.453125,333.538605 
	C952.315613,329.728699 947.646301,327.806152 942.994995,327.648468 
	C931.726318,327.266479 921.878357,323.107849 912.528564,317.452759 
	C904.647766,312.686157 896.873779,312.752686 887.944153,314.750366 
	C869.027405,318.982330 857.757874,330.729431 850.945496,347.978485 
	C850.443726,349.249237 850.526306,351.185455 848.500000,351.500000 
"/>
<path fill="none" opacity="1.000000" stroke="#000000" stroke-linecap="round" stroke-linejoin="round" stroke-width="4.000000"
	d="
M768.500000,357.000000 
	C770.284790,359.306488 769.472168,361.997833 769.455078,364.499695 
	C769.348633,380.111298 773.433105,394.987976 776.858459,410.032227 
	C778.586487,417.621796 784.181091,418.734711 790.008606,419.958893 
	C800.522583,422.167419 811.056580,424.243591 821.002197,428.494904 
	C821.485168,428.701324 822.013306,428.801697 822.497864,429.005096 
	C825.938171,430.449310 830.648376,431.571655 830.238892,435.975708 
	C829.846924,440.190918 825.204346,441.361847 821.494934,442.483246 
	C809.272156,446.178223 797.558655,443.825256 786.566345,438.366425 
	C778.684448,434.452209 770.477783,430.986786 763.939758,424.561310 
	C748.581848,409.467896 747.034668,393.960571 756.122253,375.058777 
	C762.081116,362.664673 769.725708,351.167389 778.503601,340.502960 
	C783.155029,334.851898 788.739319,330.325043 795.515930,327.538727 
	C806.136047,323.172119 816.362244,325.322693 825.958984,330.574982 
	C835.287537,335.680511 843.264282,343.040619 848.133911,352.194733 
	C851.817688,359.119720 856.177063,365.942963 858.243408,373.937103 
	C860.137512,381.264954 862.287231,388.513123 863.478699,396.003387 
	C863.633850,396.978699 863.495850,398.000031 863.500977,399.000000 
	C863.509521,400.672668 863.850464,402.641998 861.493896,402.954010 
	C859.662292,403.196533 858.623108,402.447571 857.347229,400.605835 
	C852.579712,393.723907 850.894409,385.914581 849.574829,377.987549 
	C848.782227,373.225586 848.049438,368.394318 848.476929,363.497986 
	C848.634033,361.697906 848.189270,359.773438 850.000000,358.500000 
"/>
<path fill="none" opacity="1.000000" stroke="#000000" stroke-linecap="round" stroke-linejoin="round" stroke-width="4.000000"
	d="
M588.000000,559.500000 
	C583.217712,562.358276 577.599060,562.597351 572.435974,564.306702 
	C558.362366,568.966125 546.301941,576.829590 535.034424,586.042114 
	C511.883942,604.970459 494.197266,628.462280 478.966461,653.979980 
	C473.720306,662.769348 467.304260,670.869019 463.497131,680.498840 
	C462.538605,682.923462 461.429413,685.303406 461.500000,688.000000 
"/>
<path fill="none" opacity="1.000000" stroke="#000000" stroke-linecap="round" stroke-linejoin="round" stroke-width="4.000000"
	d="
M959.000000,384.500000 
	C963.666687,384.833313 968.330444,385.215424 973.000549,385.490723 
	C985.996704,386.256714 1000.809143,396.095123 1005.335327,410.551544 
	C1006.903687,415.560852 1006.142578,421.130249 1005.603699,426.510376 
	C1005.079346,431.745789 1005.345093,436.833893 1008.911499,441.566681 
	C1019.858887,456.093872 1016.491394,463.932007 1002.933472,474.413940 
	C994.946106,480.589172 985.299927,483.479614 975.475525,485.373169 
	C973.940491,485.669067 972.610291,486.663055 971.000000,486.500000 
"/>
<path fill="none" opacity="1.000000" stroke="#000000" stroke-linecap="round" stroke-linejoin="round" stroke-width="4.000000"
	d="
M712.500000,271.000000 
	C714.665710,266.873810 719.177124,265.621735 722.588684,263.121002 
	C736.756165,252.735977 743.534058,238.676559 743.925659,221.498306 
	C744.301331,205.017502 736.363464,192.525253 723.468689,183.042557 
	C709.007385,172.407852 692.963440,173.225479 677.503540,182.505920 
	C675.322632,183.815094 673.702026,186.036606 671.000000,186.500000 
"/>
<path fill="none" opacity="1.000000" stroke="#000000" stroke-linecap="round" stroke-linejoin="round" stroke-width="4.000000"
	d="
M779.500000,527.000000 
	C783.024475,519.220825 788.490540,512.655701 793.068481,505.544098 
	C801.505859,492.436890 811.011108,480.136169 821.960022,468.960815 
	C828.654175,462.128143 836.858948,458.695038 846.006653,457.036835 
	C847.458984,456.773590 849.097656,456.658020 850.484558,457.054016 
	C861.680542,460.250732 871.318665,456.859375 879.971252,449.963959 
	C890.313293,441.722198 887.113647,428.644623 878.877747,422.668518 
	C871.829651,417.554230 863.154114,415.626831 855.093872,420.166656 
	C847.328674,424.540375 842.016602,431.253967 841.939270,440.999512 
	C841.909302,444.773865 843.605286,447.408630 845.955811,450.039490 
	C847.856262,452.166748 851.071106,453.425385 851.000000,457.000000 
"/>
<path fill="none" opacity="1.000000" stroke="#000000" stroke-linecap="round" stroke-linejoin="round" stroke-width="4.000000"
	d="
M856.500000,466.500000 
	C854.699341,469.960480 854.876587,473.849731 854.628479,477.508698 
	C854.138733,484.729645 852.011902,491.171204 848.609253,497.558228 
	C842.572937,508.888885 835.621094,519.434204 823.932068,525.366150 
	C813.868164,530.473328 803.585388,535.605225 791.484924,533.590576 
	C786.508484,532.762024 782.753174,530.160339 778.871826,526.753662 
	C772.882629,534.014954 768.146790,541.705200 764.556702,550.024475 
	C760.350525,559.771484 757.356812,569.934021 756.022156,580.502808 
	C754.634888,591.487732 756.871643,601.424927 765.000000,609.500000 
"/>
<path fill="none" opacity="1.000000" stroke="#000000" stroke-linecap="round" stroke-linejoin="round" stroke-width="4.000000"
	d="
M636.500000,311.000000 
	C640.877563,307.543091 645.062622,303.982941 644.010376,297.498322 
	C643.931335,297.011139 644.117615,296.465546 643.982727,296.005066 
	C640.747742,284.961182 624.859985,272.067596 616.494080,272.943665 
	C607.271179,273.909515 603.528564,279.158997 602.578735,287.009521 
	C600.831360,301.451263 607.728577,305.641388 621.522888,311.949951 
	C626.366882,314.165283 631.298706,313.247528 636.000000,311.000000 
"/>
<path fill="none" opacity="1.000000" stroke="#000000" stroke-linecap="round" stroke-linejoin="round" stroke-width="4.000000"
	d="
M766.500000,428.000000 
	C759.639038,434.314728 752.459656,440.332642 747.016357,448.011597 
	C742.782959,453.983765 740.372986,460.592560 739.947632,467.996979 
	C739.519592,475.449036 743.093933,481.254211 747.025024,486.982849 
	C747.680603,487.938141 748.662964,488.670471 749.500549,489.499451 
	C757.833008,497.745972 765.312622,506.444489 769.215698,517.926697 
	C770.503845,521.716370 773.740356,525.162109 777.500000,527.500000 
"/>
<path fill="none" opacity="1.000000" stroke="#000000" stroke-linecap="round" stroke-linejoin="round" stroke-width="4.000000"
	d="
M158.000000,625.500000 
	C154.709702,618.438049 146.240982,617.677246 139.008423,620.025940 
	C135.676880,621.107910 133.182236,623.069092 132.986313,626.999329 
	C132.788422,630.969116 134.618851,633.865479 138.029587,635.435730 
	C142.576538,637.529053 147.283844,639.308777 152.015076,640.956726 
	C156.071762,642.369568 159.033630,644.819153 159.940247,649.012939 
	C161.089020,654.326782 158.528290,658.096863 153.000000,660.000000 
	C144.671616,662.867126 137.921524,660.412537 131.000000,652.000000 
"/>
<path fill="none" opacity="1.000000" stroke="#000000" stroke-linecap="round" stroke-linejoin="round" stroke-width="4.000000"
	d="
M168.500000,552.500000 
	C167.144531,552.870239 166.715927,551.975342 165.949814,551.041138 
	C156.467041,539.478516 139.337769,542.954895 133.051422,556.024719 
	C127.712227,567.125305 134.008652,582.284180 145.537140,585.360840 
	C153.752808,587.553467 161.551117,586.109375 167.000000,578.500000 
"/>
<path fill="none" opacity="1.000000" stroke="#000000" stroke-linecap="round" stroke-linejoin="round" stroke-width="4.000000"
	d="
M813.500000,593.500000 
	C800.889954,595.214905 788.435608,597.565979 777.012085,603.523132 
	C767.482971,608.492371 759.609619,614.901428 755.370789,625.448059 
	C750.679382,637.120483 753.131042,647.137512 761.075623,655.931702 
	C770.969543,666.883667 783.598938,673.386047 797.996643,676.515320 
	C801.352539,677.244751 804.666687,678.166687 808.000000,679.000000 
"/>
<path fill="none" opacity="1.000000" stroke="#000000" stroke-linecap="round" stroke-linejoin="round" stroke-width="4.000000"
	d="
M808.500000,678.500000 
	C810.582214,667.424255 803.073120,655.025146 792.007568,650.979248 
	C781.477722,647.129089 770.582703,646.174133 759.501343,646.540161 
	C758.657898,646.567993 757.833313,647.166687 757.000000,647.500000 
"/>
<path fill="none" opacity="1.000000" stroke="#000000" stroke-linecap="round" stroke-linejoin="round" stroke-width="5.000000"
	d="
M133.000000,471.000000 
	C133.000000,483.835510 133.000000,496.670990 133.000000,510.000000 
	C141.326248,510.000000 149.163116,510.000000 157.000000,510.000000 
"/>
<path fill="none" opacity="1.000000" stroke="#000000" stroke-linecap="round" stroke-linejoin="round" stroke-width="4.000000"
	d="
M864.000000,430.000000 
	C859.145203,431.033020 855.399536,433.852814 853.087402,438.048157 
	C850.667603,442.438751 851.620117,447.999359 856.539795,449.355652 
	C860.532715,450.456421 864.962952,451.142914 868.989075,448.979706 
	C878.522278,443.857574 876.270264,438.637512 870.022400,432.975311 
	C868.390930,431.496765 866.497253,430.699432 864.500000,430.000000 
"/>
<path fill="none" opacity="1.000000" stroke="#000000" stroke-linecap="round" stroke-linejoin="round" stroke-width="4.000000"
	d="
M1024.500000,648.500000 
	C1024.088135,649.127441 1025.424805,650.299866 1023.507507,650.556335 
	C1009.232727,652.465698 995.391968,656.369385 981.511475,660.043396 
	C976.713806,661.313171 971.773010,660.416931 967.000000,661.500000 
"/>
<path fill="none" opacity="1.000000" stroke="#000000" stroke-linecap="round" stroke-linejoin="round" stroke-width="4.000000"
	d="
M753.500000,645.999939 
	C743.000000,647.499939 732.482483,648.888794 722.006042,650.538269 
	C714.807861,651.671631 707.573608,652.818237 700.551941,654.694458 
	C698.187195,655.326416 696.208557,655.377930 694.000000,655.000000 
"/>
<path fill="none" opacity="1.000000" stroke="#000000" stroke-linecap="round" stroke-linejoin="round" stroke-width="3.000000"
	d="
M638.000000,321.000000 
	C633.226257,323.475037 631.919556,325.688782 633.557556,330.480316 
	C638.525635,345.013092 644.566711,359.084381 653.075989,371.949738 
	C653.918152,373.223053 654.915161,375.002014 657.000000,375.000000 
"/>
<path fill="none" opacity="1.000000" stroke="#000000" stroke-linecap="round" stroke-linejoin="round" stroke-width="4.000000"
	d="
M616.500000,295.500000 
	C617.638611,302.140503 625.986145,306.718262 632.000000,304.000031 
	C636.530396,301.952332 638.008118,296.758392 634.981812,293.014709 
	C630.302673,287.226410 622.552917,284.371490 617.034363,292.024780 
	C616.445923,292.840790 616.333313,294.000000 616.000000,295.000000 
"/>
<path fill="none" opacity="1.000000" stroke="#000000" stroke-linecap="round" stroke-linejoin="round" stroke-width="4.000000"
	d="
M237.500000,563.000000 
	C236.666656,562.500000 235.681030,562.148499 235.024979,561.475647 
	C231.077621,557.427368 225.903488,555.851868 221.531876,558.062988 
	C216.780777,560.466125 213.815903,564.310120 213.992157,570.000244 
	C214.080933,572.866272 213.858780,575.700500 214.958344,578.516296 
	C218.387360,587.297302 228.155869,587.848145 233.984756,583.479675 
	C235.323624,582.476196 236.211075,580.775513 238.250000,581.000000 
"/>
<path fill="none" opacity="1.000000" stroke="#000000" stroke-linecap="round" stroke-linejoin="round" stroke-width="4.000000"
	d="
M220.500000,495.000000 
	C216.423203,496.248932 212.072189,494.750549 207.944244,496.356689 
	C206.897552,496.763947 205.449829,497.088104 204.564880,497.610016 
	C200.608994,499.943054 199.044189,504.002747 200.500000,507.000000 
	C202.428055,510.969513 208.063217,512.580627 213.022842,511.075287 
	C216.300278,510.080505 217.898590,506.674347 221.250000,506.000000 
"/>
<path fill="none" opacity="1.000000" stroke="#000000" stroke-linecap="round" stroke-linejoin="round" stroke-width="5.000000"
	d="
M194.500000,660.500000 
	C195.641953,653.666687 195.136414,646.803467 194.390930,640.011963 
	C193.988144,636.342651 191.591904,632.970276 187.960358,632.182800 
	C184.292038,631.387390 180.145996,631.467529 177.014648,634.515076 
	C175.905304,635.594666 175.612671,637.603638 173.500000,637.500000 
"/>
<path fill="none" opacity="1.000000" stroke="#000000" stroke-linecap="round" stroke-linejoin="round" stroke-width="4.000000"
	d="
M279.500000,510.500000 
	C279.500000,504.666656 279.440643,498.832550 279.519287,493.000275 
	C279.579010,488.570831 277.755157,484.655731 273.918304,483.217987 
	C270.015106,481.755371 265.334351,481.334564 261.977234,485.481567 
	C261.074890,486.596130 260.098694,487.771484 258.500000,488.000000 
"/>
<path fill="none" opacity="1.000000" stroke="#000000" stroke-linecap="round" stroke-linejoin="round" stroke-width="4.000000"
	d="
M599.000000,562.000000 
	C602.933167,565.076477 607.658386,566.685120 612.014404,568.972595 
	C620.130859,573.234741 628.329102,577.341675 636.503418,581.493286 
	C638.250000,582.380310 639.943054,583.448242 642.000000,583.500000 
"/>
<path fill="none" opacity="1.000000" stroke="#000000" stroke-linecap="round" stroke-linejoin="round" stroke-width="4.000000"
	d="
M278.500000,580.500000 
	C276.477936,579.633545 276.450409,581.762329 275.502625,582.503357 
	C270.791107,586.186951 265.655487,587.205811 260.000275,584.999268 
	C254.535583,582.867065 252.457382,578.130676 252.147980,572.991089 
	C251.790115,567.046692 253.206070,561.469421 259.483643,558.465759 
	C266.782043,554.973694 275.522125,559.101807 276.973907,567.004822 
	C277.450806,569.600769 276.639557,571.131042 273.498688,571.052612 
	C266.669586,570.882141 259.833344,571.000000 253.000000,571.000000 
"/>
<path fill="none" opacity="1.000000" stroke="#000000" stroke-linecap="round" stroke-linejoin="round" stroke-width="4.000000"
	d="
M166.000000,495.500000 
	C173.500000,496.625916 181.000000,495.636749 188.289444,496.123322 
	C190.240768,490.398529 187.645981,486.633881 183.910583,484.133575 
	C179.976410,481.500183 175.360199,481.821136 170.992264,483.984375 
	C166.806839,486.057251 164.361969,489.489899 165.216324,493.958649 
	C165.644104,496.196198 164.057205,497.504181 164.437073,499.511902 
	C166.657944,511.249786 177.853958,514.342346 185.978455,508.967407 
	C187.134186,508.202820 188.000015,507.000031 189.000015,506.000031 
"/>
<path fill="none" opacity="1.000000" stroke="#000000" stroke-linecap="round" stroke-linejoin="round" stroke-width="4.000000"
	d="
M263.000000,645.500000 
	C269.500000,645.500000 276.001190,645.574951 282.499573,645.472351 
	C286.498138,645.409302 287.278015,644.246033 285.985352,640.505066 
	C283.374634,632.949585 278.748688,631.345337 272.009216,632.084045 
	C265.682007,632.777527 262.892944,637.835938 262.300903,644.983521 
	C261.850433,650.422241 262.855164,654.405823 266.939209,658.067810 
	C271.556732,662.208130 281.093475,662.254517 286.000000,655.000000 
"/>
<path fill="none" opacity="1.000000" stroke="#000000" stroke-linecap="round" stroke-linejoin="round" stroke-width="5.000000"
	d="
M328.000000,625.000000 
	C328.000000,633.666687 327.876007,642.335632 328.037048,650.999329 
	C328.180359,658.711243 329.991425,660.380371 336.500000,659.500000 
"/>
<path fill="none" opacity="1.000000" stroke="#000000" stroke-linecap="round" stroke-linejoin="round" stroke-width="5.000000"
	d="
M328.000000,473.500000 
	C327.064392,475.046204 326.964630,476.731689 326.976776,478.500153 
	C327.030457,486.333130 326.967072,494.166840 327.010071,501.999939 
	C327.046661,508.665009 327.952087,509.647095 334.500000,510.500000 
"/>
<path fill="none" opacity="1.000000" stroke="#000000" stroke-linecap="round" stroke-linejoin="round" stroke-width="5.000000"
	d="
M321.500000,549.500000 
	C320.369354,559.650879 321.115112,569.835083 321.086365,580.000244 
	C321.073456,584.563049 324.574982,585.609863 328.500000,585.500000 
"/>
<path fill="none" opacity="1.000000" stroke="#000000" stroke-linecap="round" stroke-linejoin="round" stroke-width="4.000000"
	d="
M222.000000,510.000000 
	C222.000000,504.166656 222.129272,498.329834 221.970413,492.500793 
	C221.716980,483.201569 215.773315,480.995941 207.023773,483.098938 
	C204.252930,483.764893 201.508057,485.297394 200.500000,488.500000 
"/>
<path fill="none" opacity="1.000000" stroke="#000000" stroke-linecap="round" stroke-linejoin="round" stroke-width="5.000000"
	d="
M306.500000,557.500000 
	C304.487793,558.018555 304.968750,559.639893 305.012177,560.999634 
	C305.273010,569.164612 304.418793,577.350769 305.453033,585.505981 
	C305.489380,585.792358 304.833313,586.166626 304.499969,586.500000 
"/>
<path fill="none" opacity="1.000000" stroke="#000000" stroke-linecap="round" stroke-linejoin="round" stroke-width="4.000000"
	d="
M311.500000,482.500000 
	C311.500000,490.833344 311.485504,499.166718 311.512177,507.499969 
	C311.517517,509.174622 311.198730,510.896790 312.000000,512.500000 
"/>
<path fill="none" opacity="1.000000" stroke="#000000" stroke-linecap="round" stroke-linejoin="round" stroke-width="5.000000"
	d="
M229.000000,659.000000 
	C229.000000,653.833313 228.939072,648.665771 229.019073,643.500305 
	C229.084320,639.287842 228.853973,635.189453 224.484543,633.031311 
	C220.138229,630.884583 215.692749,631.797729 211.545029,633.603394 
	C209.936172,634.303833 208.833359,636.166687 207.500015,637.500000 
"/>
<path fill="none" opacity="1.000000" stroke="#000000" stroke-linecap="round" stroke-linejoin="round" stroke-width="5.000000"
	d="
M313.000000,633.000000 
	C313.000000,642.000000 313.000000,651.000000 313.000000,660.000000 
"/>
<path fill="none" opacity="1.000000" stroke="#000000" stroke-linecap="round" stroke-linejoin="round" stroke-width="4.000000"
	d="
M172.500000,616.500000 
	C172.500000,630.333313 172.503937,644.166687 172.493683,658.000000 
	C172.492706,659.328064 172.992950,661.127686 170.500000,660.500000 
"/>
<path fill="none" opacity="1.000000" stroke="#000000" stroke-linecap="round" stroke-linejoin="round" stroke-width="4.000000"
	d="
M228.000000,644.500000 
	C222.545868,644.560242 217.131500,644.774902 211.991989,646.981323 
	C208.131912,648.638428 206.887466,651.665710 207.549622,655.491394 
	C208.145935,658.936890 211.880722,661.326111 215.996323,660.958740 
	C219.382690,660.656494 222.921555,660.493408 225.033356,657.020264 
	C225.636002,656.029236 226.549683,655.099365 228.000000,655.500000 
"/>
<path fill="none" opacity="1.000000" stroke="#000000" stroke-linecap="round" stroke-linejoin="round" stroke-width="5.000000"
	d="
M255.500000,634.500000 
	C255.371216,629.916626 250.796768,631.708130 250.163300,632.207275 
	C246.698746,634.937134 242.212631,636.870117 242.810547,643.018433 
	C243.368988,648.760986 243.655014,654.694885 242.500000,660.500000 
"/>
<path fill="none" opacity="1.000000" stroke="#000000" stroke-linecap="round" stroke-linejoin="round" stroke-width="4.000000"
	d="
M257.500000,482.500000 
	C257.500000,491.833344 257.500000,501.166656 257.500000,510.500000 
"/>
<path fill="none" opacity="1.000000" stroke="#000000" stroke-linecap="round" stroke-linejoin="round" stroke-width="5.000000"
	d="
M239.000000,543.000000 
	C239.000000,556.666687 239.012131,570.333313 238.978317,583.999939 
	C238.975418,585.167053 238.666656,586.333313 238.499985,587.500000 
"/>
<path fill="none" opacity="1.000000" stroke="#000000" stroke-linecap="round" stroke-linejoin="round" stroke-width="4.000000"
	d="
M235.500000,483.500000 
	C236.453705,491.666656 235.209778,499.832458 235.475403,508.000793 
	C235.524857,509.521301 235.396362,510.957977 237.500000,511.000000 
"/>
<path fill="none" opacity="1.000000" stroke="#000000" stroke-linecap="round" stroke-linejoin="round" stroke-width="3.000000"
	d="
M626.000000,314.000000 
	C625.423035,317.198059 628.123718,317.560425 630.018066,318.462097 
	C631.916077,319.365479 634.234436,319.459076 635.500000,321.500000 
"/>
<path fill="none" opacity="1.000000" stroke="#000000" stroke-linecap="round" stroke-linejoin="round" stroke-width="3.000000"
	d="
M779.000000,418.000000 
	C775.666687,421.000000 772.333313,424.000000 769.000000,427.000000 
"/>
<path fill="none" opacity="1.000000" stroke="#000000" stroke-linecap="round" stroke-linejoin="round" stroke-width="4.000000"
	d="
M247.500000,483.000000 
	C244.654800,481.875153 242.418930,482.648193 240.464767,484.970337 
	C239.401733,486.233612 238.355362,487.696045 236.500000,488.000000 
"/>
<path fill="none" opacity="1.000000" stroke="#000000" stroke-linecap="round" stroke-linejoin="round" stroke-width="4.000000"
	d="
M336.500000,632.500000 
	C332.333344,632.500000 328.158508,632.653992 324.003448,632.434509 
	C321.947418,632.325928 322.577576,633.516541 322.500000,634.500000 
"/>
<path fill="none" opacity="1.000000" stroke="#000000" stroke-linecap="round" stroke-linejoin="round" stroke-width="5.000000"
	d="
M329.000000,558.000000 
	C324.666656,558.000000 320.333344,558.000000 316.000000,558.000000 
"/>
<path fill="none" opacity="1.000000" stroke="#000000" stroke-linecap="round" stroke-linejoin="round" stroke-width="5.000000"
	d="
M335.000000,483.000000 
	C330.506104,483.331451 325.962738,482.326996 321.500000,483.500000 
"/>
<path fill="none" opacity="1.000000" stroke="#000000" stroke-linecap="round" stroke-linejoin="round" stroke-width="4.000000"
	d="
M190.500000,557.000000 
	C184.328506,558.018311 179.974884,561.081604 178.489212,567.497498 
	C177.192764,573.096313 178.023315,578.254395 182.039230,582.462585 
	C185.907318,586.515808 190.839294,587.220276 195.984528,585.454895 
	C201.077332,583.707458 203.499649,579.615356 203.958160,574.496277 
	C204.884583,564.153015 201.150711,559.250366 191.000000,557.000000 
"/>
</svg>